<svg preserveAspectRatio="xMidYMid meet" viewBox="21.087533156498672 31.755725190839694 251.85676392572947 48.030534351145036" xmlns="http://www.w3.org/2000/svg" version="1.0" style="max-height: 500px" width="251.85676392572947" height="48.030534351145036">
<metadata>
Created by potrace 1.10, written by Peter Selinger 2001-2011
</metadata>
<g stroke="none" fill="#000000" transform="translate(0.000000,104.000000) scale(0.100000,-0.100000)">
<path d="M333 694 c-18 -9 -42 -31 -53 -49 -24 -39 -26 -111 -4 -143 14 -20&#10;14 -24 0 -44 -9 -12 -16 -42 -16 -67 0 -105 101 -170 195 -125 30 14 36 14 64&#10;0 112 -58 240 64 186 178 -16 34 -16 38 0 72 54 114 -74 236 -186 178 -28 -14&#10;-34 -14 -64 0 -42 20 -81 20 -122 0z m125 -49 c35 -30 47 -70 32 -109 -9 -25&#10;-14 -27 -38 -20 -34 10 -79 10 -113 0 -23 -7 -28 -4 -37 22 -14 41 -4 79 30&#10;107 39 33 87 33 126 0z m178 7 c96 -77 12 -222 -99 -171 -23 10 -23 12 -11 50&#10;12 33 12 45 0 79 -12 36 -12 41 3 50 26 15 84 11 107 -8z m-192 -175 c15 -11&#10;16 -17 7 -35 -14 -26 -14 -77 0 -103 28 -54 -68 -69 -123 -20 -68 61 -22 168&#10;73 170 14 1 33 -5 43 -12z m149 -43 c67 12 71 12 80 -15 23 -62 -26 -129 -93&#10;-129 -76 0 -126 83 -90 150 9 17 12 17 41 3 19 -9 43 -13 62 -9z"/>
<path d="M1077 623 c-4 -3 -7 -58 -7 -120 0 -113 0 -115 29 -144 36 -35 61&#10;-37 98 -5 27 24 28 27 31 141 4 119 -1 141 -31 129 -14 -5 -17 -22 -17 -109 0&#10;-117 -4 -135 -31 -135 -30 0 -41 45 -37 147 2 70 0 94 -10 98 -17 6 -17 6 -25&#10;-2z"/>
<path d="M2583 614 c-2 -5 -2 -71 -1 -145 l3 -134 55 0 c49 0 55 2 58 23 3 19&#10;-1 22 -32 22 -35 0 -36 1 -36 39 0 35 2 38 25 33 22 -4 25 -1 25 22 0 21 -5&#10;26 -25 26 -22 0 -25 4 -25 40 0 39 1 40 36 40 31 0 35 3 32 22 -3 20 -9 22&#10;-57 23 -29 0 -55 -5 -58 -11z"/>
<path d="M850 474 c0 -145 0 -145 23 -142 19 3 22 10 25 61 4 73 18 71 46 -6&#10;20 -56 29 -64 54 -49 10 7 8 20 -9 60 -20 47 -20 52 -5 74 20 29 21 97 0 126&#10;-13 19 -24 22 -75 22 l-59 0 0 -146z m106 79 c8 -32 -6 -57 -35 -61 -19 -3&#10;-21 1 -21 42 0 42 2 46 25 46 18 0 26 -7 31 -27z"/>
<path d="M1290 475 l0 -145 55 0 c52 0 55 1 55 25 0 22 -4 25 -32 25 l-33 0 4&#10;120 3 120 -26 0 -26 0 0 -145z"/>
<path d="M1474 612 c-25 -16 -34 -55 -34 -142 0 -83 2 -93 25 -115 13 -14 36&#10;-25 50 -25 14 0 37 11 50 25 23 22 25 31 25 122 0 119 -12 143 -68 143 -20 0&#10;-42 -4 -48 -8z m61 -132 c0 -88 -1 -95 -20 -95 -18 0 -20 8 -23 84 -3 96 1&#10;114 25 109 16 -3 18 -16 18 -98z"/>
<path d="M1646 598 c-29 -41 -19 -75 45 -145 24 -26 36 -48 33 -58 -8 -19 -44&#10;-20 -44 0 0 9 -9 15 -25 15 -16 0 -25 -6 -25 -15 0 -23 46 -65 70 -65 27 0 70&#10;43 70 70 0 30 -23 70 -59 104 -17 17 -31 38 -31 48 0 21 32 38 38 20 4 -13 52&#10;-17 52 -4 0 4 -7 18 -16 30 -11 16 -25 22 -54 22 -29 0 -43 -6 -54 -22z"/>
<path d="M1832 607 c-19 -22 -24 -64 -11 -89 6 -12 29 -42 50 -65 24 -26 36&#10;-48 33 -58 -8 -19 -33 -20 -40 0 -8 20 -54 20 -54 0 0 -22 45 -65 68 -65 36 0&#10;72 38 72 76 0 27 -10 45 -45 83 -25 26 -45 56 -45 65 0 20 32 35 38 18 5 -17&#10;52 -15 52 1 0 38 -93 65 -118 34z"/>
<path d="M2021 594 c-17 -22 -21 -41 -21 -110 0 -93 11 -127 47 -143 34 -16&#10;47 -14 77 10 35 28 36 69 1 69 -19 0 -25 -5 -25 -21 0 -15 -5 -20 -22 -17 -22&#10;3 -23 7 -23 98 0 84 2 95 18 98 12 2 20 -4 24 -16 9 -37 53 -39 53 -4 0 62&#10;-89 86 -129 36z"/>
<path d="M2224 613 c-25 -17 -34 -56 -34 -143 0 -83 2 -93 25 -115 13 -14 36&#10;-25 50 -25 14 0 37 11 50 25 23 22 25 32 25 117 0 118 -11 142 -65 146 -22 1&#10;-45 -1 -51 -5z m61 -133 c0 -88 -1 -95 -20 -95 -18 0 -20 8 -23 84 -3 96 1&#10;114 25 109 16 -3 18 -16 18 -98z"/>
<path d="M2390 475 l0 -145 43 0 c51 0 63 7 76 43 16 41 13 172 -3 212 -14 33&#10;-17 35 -65 35 l-51 0 0 -145z m81 49 c9 -72 -2 -138 -23 -142 -16 -3 -18 6&#10;-18 91 0 51 3 97 7 101 15 15 28 -3 34 -50z"/>
</g>
</svg>